<mxfile host="app.diagrams.net" agent="Mozilla/5.0 (Windows NT 10.0; Win64; x64) AppleWebKit/537.36 (KHTML, like Gecko) Chrome/127.0.0.0 Safari/537.36 OPR/113.0.0.0" version="24.8.3">
  <diagram name="PÃ¡gina-1" id="oDKx01zZ5vxRKA5znKhv">
    <mxGraphModel dx="1249" dy="586" grid="1" gridSize="10" guides="1" tooltips="1" connect="1" arrows="1" fold="1" page="1" pageScale="1" pageWidth="827" pageHeight="1169" math="0" shadow="0">
      <root>
        <mxCell id="0" />
        <mxCell id="1" parent="0" />
        <mxCell id="-gaBI5YNp0DLK8B5nc4l-1" value="&amp;lt;&amp;lt;component&amp;gt;&amp;gt;&lt;div&gt;&amp;lt;&amp;lt;container (C4)&amp;gt;&amp;gt;&lt;/div&gt;&lt;div&gt;Master Data&lt;/div&gt;&lt;div&gt;&lt;br&gt;&lt;/div&gt;&lt;div&gt;&lt;br&gt;&lt;/div&gt;&lt;div&gt;&lt;br&gt;&lt;/div&gt;&lt;div&gt;&lt;br&gt;&lt;/div&gt;&lt;div&gt;&lt;br&gt;&lt;/div&gt;&lt;div&gt;&lt;br&gt;&lt;/div&gt;&lt;div&gt;&lt;br&gt;&lt;/div&gt;&lt;div&gt;&lt;br&gt;&lt;/div&gt;&lt;div&gt;&lt;br&gt;&lt;/div&gt;&lt;div&gt;&lt;br&gt;&lt;/div&gt;&lt;div&gt;&lt;br&gt;&lt;/div&gt;&lt;div&gt;&lt;br&gt;&lt;/div&gt;&lt;div&gt;&lt;br&gt;&lt;/div&gt;&lt;div&gt;&lt;br&gt;&lt;/div&gt;&lt;div&gt;&lt;br&gt;&lt;/div&gt;&lt;div&gt;&lt;br&gt;&lt;/div&gt;&lt;div&gt;&lt;br&gt;&lt;/div&gt;&lt;div&gt;&lt;br&gt;&lt;/div&gt;&lt;div&gt;&lt;br&gt;&lt;/div&gt;&lt;div&gt;&lt;br&gt;&lt;/div&gt;&lt;div&gt;&lt;br&gt;&lt;/div&gt;&lt;div&gt;&lt;br&gt;&lt;/div&gt;&lt;div&gt;&lt;br&gt;&lt;/div&gt;&lt;div&gt;&lt;br&gt;&lt;/div&gt;&lt;div&gt;&lt;br&gt;&lt;/div&gt;&lt;div&gt;&lt;br&gt;&lt;/div&gt;&lt;div&gt;&lt;br&gt;&lt;/div&gt;&lt;div&gt;&lt;br&gt;&lt;/div&gt;&lt;div&gt;&lt;br&gt;&lt;/div&gt;&lt;div&gt;&lt;br&gt;&lt;/div&gt;&lt;div&gt;&lt;br&gt;&lt;/div&gt;&lt;div&gt;&lt;br&gt;&lt;/div&gt;&lt;div&gt;&lt;br&gt;&lt;/div&gt;&lt;div&gt;&lt;br&gt;&lt;/div&gt;&lt;div&gt;&lt;br&gt;&lt;/div&gt;&lt;div&gt;&lt;br&gt;&lt;/div&gt;&lt;div&gt;&lt;br&gt;&lt;/div&gt;&lt;div&gt;&lt;br&gt;&lt;/div&gt;&lt;div&gt;&lt;br&gt;&lt;/div&gt;&lt;div&gt;&lt;br&gt;&lt;/div&gt;&lt;div&gt;&lt;br&gt;&lt;/div&gt;&lt;div&gt;&lt;br&gt;&lt;/div&gt;&lt;div&gt;&lt;br&gt;&lt;/div&gt;&lt;div&gt;&lt;br&gt;&lt;/div&gt;&lt;div&gt;&lt;br&gt;&lt;/div&gt;&lt;div&gt;&lt;br&gt;&lt;/div&gt;&lt;div&gt;&lt;br&gt;&lt;/div&gt;&lt;div&gt;&lt;br&gt;&lt;/div&gt;&lt;div&gt;&lt;br&gt;&lt;/div&gt;&lt;div&gt;&lt;br&gt;&lt;/div&gt;&lt;div&gt;&lt;br&gt;&lt;/div&gt;&lt;div&gt;&lt;br&gt;&lt;/div&gt;&lt;div&gt;&lt;br&gt;&lt;/div&gt;&lt;div&gt;&lt;br&gt;&lt;/div&gt;&lt;div&gt;&lt;br&gt;&lt;/div&gt;&lt;div&gt;&lt;br&gt;&lt;/div&gt;&lt;div&gt;&lt;br&gt;&lt;/div&gt;&lt;div&gt;&lt;br&gt;&lt;/div&gt;&lt;div&gt;&lt;br&gt;&lt;/div&gt;&lt;div&gt;&lt;br&gt;&lt;/div&gt;&lt;div&gt;&lt;br&gt;&lt;/div&gt;&lt;div&gt;&lt;br&gt;&lt;/div&gt;&lt;div&gt;&lt;br&gt;&lt;/div&gt;" style="html=1;dropTarget=0;whiteSpace=wrap;" parent="1" vertex="1">
          <mxGeometry x="40" y="150" width="650" height="970" as="geometry" />
        </mxCell>
        <mxCell id="-gaBI5YNp0DLK8B5nc4l-2" value="" style="shape=module;jettyWidth=8;jettyHeight=4;" parent="-gaBI5YNp0DLK8B5nc4l-1" vertex="1">
          <mxGeometry x="1" width="20" height="20" relative="1" as="geometry">
            <mxPoint x="-27" y="7" as="offset" />
          </mxGeometry>
        </mxCell>
        <mxCell id="-gaBI5YNp0DLK8B5nc4l-3" value="Frameworks and Drives Layer&lt;div&gt;&lt;br&gt;&lt;/div&gt;&lt;div&gt;&lt;br&gt;&lt;/div&gt;&lt;div&gt;&lt;br&gt;&lt;/div&gt;&lt;div&gt;&lt;br&gt;&lt;/div&gt;&lt;div&gt;&lt;br&gt;&lt;/div&gt;" style="shape=folder;fontStyle=1;tabWidth=80;tabHeight=30;tabPosition=left;html=1;boundedLbl=1;whiteSpace=wrap;fillColor=#dae8fc;strokeColor=#6c8ebf;" parent="1" vertex="1">
          <mxGeometry x="70" y="200" width="570" height="150" as="geometry" />
        </mxCell>
        <mxCell id="-gaBI5YNp0DLK8B5nc4l-4" value="Interface Adapters Layer&lt;div&gt;&lt;br&gt;&lt;/div&gt;&lt;div&gt;&lt;br&gt;&lt;/div&gt;&lt;div&gt;&lt;br&gt;&lt;/div&gt;&lt;div&gt;&lt;br&gt;&lt;/div&gt;&lt;div&gt;&lt;br&gt;&lt;/div&gt;" style="shape=folder;fontStyle=1;tabWidth=80;tabHeight=30;tabPosition=left;html=1;boundedLbl=1;whiteSpace=wrap;fillColor=#d5e8d4;strokeColor=#82b366;" parent="1" vertex="1">
          <mxGeometry x="70" y="490" width="570" height="150" as="geometry" />
        </mxCell>
        <mxCell id="-gaBI5YNp0DLK8B5nc4l-5" value="Application Business Rules&lt;div&gt;&lt;br&gt;&lt;/div&gt;&lt;div&gt;&lt;br&gt;&lt;/div&gt;&lt;div&gt;&lt;br&gt;&lt;/div&gt;&lt;div&gt;&lt;br&gt;&lt;/div&gt;&lt;div&gt;&lt;br&gt;&lt;/div&gt;" style="shape=folder;fontStyle=1;tabWidth=80;tabHeight=30;tabPosition=left;html=1;boundedLbl=1;whiteSpace=wrap;fillColor=#e1d5e7;strokeColor=#9673a6;" parent="1" vertex="1">
          <mxGeometry x="70" y="730" width="570" height="150" as="geometry" />
        </mxCell>
        <mxCell id="-gaBI5YNp0DLK8B5nc4l-6" value="Application Business Rules&lt;div&gt;&lt;br&gt;&lt;/div&gt;&lt;div&gt;&lt;br&gt;&lt;/div&gt;&lt;div&gt;&lt;br&gt;&lt;/div&gt;&lt;div&gt;&lt;br&gt;&lt;/div&gt;&lt;div&gt;&lt;br&gt;&lt;/div&gt;" style="shape=folder;fontStyle=1;tabWidth=80;tabHeight=30;tabPosition=left;html=1;boundedLbl=1;whiteSpace=wrap;fillColor=#ffe6cc;strokeColor=#d79b00;" parent="1" vertex="1">
          <mxGeometry x="70" y="950" width="570" height="150" as="geometry" />
        </mxCell>
        <mxCell id="-gaBI5YNp0DLK8B5nc4l-7" value="&amp;lt;&amp;lt;component&amp;gt;&amp;gt;&lt;div&gt;Routing&lt;/div&gt;" style="html=1;dropTarget=0;whiteSpace=wrap;" parent="1" vertex="1">
          <mxGeometry x="100" y="260" width="140" height="70" as="geometry" />
        </mxCell>
        <mxCell id="-gaBI5YNp0DLK8B5nc4l-8" value="" style="shape=module;jettyWidth=8;jettyHeight=4;" parent="-gaBI5YNp0DLK8B5nc4l-7" vertex="1">
          <mxGeometry x="1" width="20" height="20" relative="1" as="geometry">
            <mxPoint x="-27" y="7" as="offset" />
          </mxGeometry>
        </mxCell>
        <mxCell id="-gaBI5YNp0DLK8B5nc4l-35" style="edgeStyle=orthogonalEdgeStyle;rounded=0;orthogonalLoop=1;jettySize=auto;html=1;endArrow=none;endFill=0;" parent="1" source="-gaBI5YNp0DLK8B5nc4l-9" target="-gaBI5YNp0DLK8B5nc4l-33" edge="1">
          <mxGeometry relative="1" as="geometry">
            <Array as="points">
              <mxPoint x="140" y="640" />
              <mxPoint x="140" y="640" />
            </Array>
          </mxGeometry>
        </mxCell>
        <mxCell id="-gaBI5YNp0DLK8B5nc4l-74" style="edgeStyle=orthogonalEdgeStyle;rounded=0;orthogonalLoop=1;jettySize=auto;html=1;entryX=0.5;entryY=0;entryDx=0;entryDy=0;endArrow=none;endFill=0;" parent="1" source="-gaBI5YNp0DLK8B5nc4l-9" target="-gaBI5YNp0DLK8B5nc4l-69" edge="1">
          <mxGeometry relative="1" as="geometry">
            <Array as="points">
              <mxPoint x="233" y="650" />
            </Array>
          </mxGeometry>
        </mxCell>
        <mxCell id="-gaBI5YNp0DLK8B5nc4l-9" value="&amp;lt;&amp;lt;component&amp;gt;&amp;gt;&lt;div&gt;Controller&lt;/div&gt;" style="html=1;dropTarget=0;whiteSpace=wrap;" parent="1" vertex="1">
          <mxGeometry x="100" y="550" width="140" height="70" as="geometry" />
        </mxCell>
        <mxCell id="-gaBI5YNp0DLK8B5nc4l-10" value="" style="shape=module;jettyWidth=8;jettyHeight=4;" parent="-gaBI5YNp0DLK8B5nc4l-9" vertex="1">
          <mxGeometry x="1" width="20" height="20" relative="1" as="geometry">
            <mxPoint x="-27" y="7" as="offset" />
          </mxGeometry>
        </mxCell>
        <mxCell id="-gaBI5YNp0DLK8B5nc4l-64" style="edgeStyle=orthogonalEdgeStyle;rounded=0;orthogonalLoop=1;jettySize=auto;html=1;entryX=0.5;entryY=0;entryDx=0;entryDy=0;endArrow=none;endFill=0;" parent="1" source="-gaBI5YNp0DLK8B5nc4l-11" target="-gaBI5YNp0DLK8B5nc4l-63" edge="1">
          <mxGeometry relative="1" as="geometry">
            <Array as="points">
              <mxPoint x="180" y="870" />
              <mxPoint x="353" y="870" />
              <mxPoint x="353" y="919" />
            </Array>
          </mxGeometry>
        </mxCell>
        <mxCell id="-gaBI5YNp0DLK8B5nc4l-11" value="&amp;lt;&amp;lt;component&amp;gt;&amp;gt;&lt;div&gt;Application Service&lt;/div&gt;" style="html=1;dropTarget=0;whiteSpace=wrap;" parent="1" vertex="1">
          <mxGeometry x="110" y="780" width="140" height="70" as="geometry" />
        </mxCell>
        <mxCell id="-gaBI5YNp0DLK8B5nc4l-12" value="" style="shape=module;jettyWidth=8;jettyHeight=4;" parent="-gaBI5YNp0DLK8B5nc4l-11" vertex="1">
          <mxGeometry x="1" width="20" height="20" relative="1" as="geometry">
            <mxPoint x="-27" y="7" as="offset" />
          </mxGeometry>
        </mxCell>
        <mxCell id="-gaBI5YNp0DLK8B5nc4l-13" value="&amp;lt;&amp;lt;component&amp;gt;&amp;gt;&lt;div&gt;Domain Model (DDD)&lt;/div&gt;" style="html=1;dropTarget=0;whiteSpace=wrap;" parent="1" vertex="1">
          <mxGeometry x="285" y="1020" width="140" height="70" as="geometry" />
        </mxCell>
        <mxCell id="-gaBI5YNp0DLK8B5nc4l-14" value="" style="shape=module;jettyWidth=8;jettyHeight=4;" parent="-gaBI5YNp0DLK8B5nc4l-13" vertex="1">
          <mxGeometry x="1" width="20" height="20" relative="1" as="geometry">
            <mxPoint x="-27" y="7" as="offset" />
          </mxGeometry>
        </mxCell>
        <mxCell id="-gaBI5YNp0DLK8B5nc4l-83" style="edgeStyle=orthogonalEdgeStyle;rounded=0;orthogonalLoop=1;jettySize=auto;html=1;entryX=0.5;entryY=1;entryDx=0;entryDy=0;endArrow=none;endFill=0;" parent="1" source="-gaBI5YNp0DLK8B5nc4l-15" target="-gaBI5YNp0DLK8B5nc4l-80" edge="1">
          <mxGeometry relative="1" as="geometry" />
        </mxCell>
        <mxCell id="-gaBI5YNp0DLK8B5nc4l-87" value="Data Model API&amp;nbsp;" style="edgeLabel;html=1;align=center;verticalAlign=middle;resizable=0;points=[];" parent="-gaBI5YNp0DLK8B5nc4l-83" vertex="1" connectable="0">
          <mxGeometry x="0.819" relative="1" as="geometry">
            <mxPoint y="5" as="offset" />
          </mxGeometry>
        </mxCell>
        <mxCell id="-gaBI5YNp0DLK8B5nc4l-15" value="&amp;lt;&amp;lt;component&amp;gt;&amp;gt;&lt;div&gt;Repository&lt;/div&gt;" style="html=1;dropTarget=0;whiteSpace=wrap;" parent="1" vertex="1">
          <mxGeometry x="460" y="550" width="140" height="70" as="geometry" />
        </mxCell>
        <mxCell id="-gaBI5YNp0DLK8B5nc4l-16" value="" style="shape=module;jettyWidth=8;jettyHeight=4;" parent="-gaBI5YNp0DLK8B5nc4l-15" vertex="1">
          <mxGeometry x="1" width="20" height="20" relative="1" as="geometry">
            <mxPoint x="-27" y="7" as="offset" />
          </mxGeometry>
        </mxCell>
        <mxCell id="-gaBI5YNp0DLK8B5nc4l-17" value="&amp;lt;&amp;lt;component&amp;gt;&amp;gt;&lt;div&gt;DTO&lt;/div&gt;" style="html=1;dropTarget=0;whiteSpace=wrap;" parent="1" vertex="1">
          <mxGeometry x="285" y="670" width="140" height="70" as="geometry" />
        </mxCell>
        <mxCell id="-gaBI5YNp0DLK8B5nc4l-18" value="" style="shape=module;jettyWidth=8;jettyHeight=4;" parent="-gaBI5YNp0DLK8B5nc4l-17" vertex="1">
          <mxGeometry x="1" width="20" height="20" relative="1" as="geometry">
            <mxPoint x="-27" y="7" as="offset" />
          </mxGeometry>
        </mxCell>
        <mxCell id="-gaBI5YNp0DLK8B5nc4l-84" style="edgeStyle=orthogonalEdgeStyle;rounded=0;orthogonalLoop=1;jettySize=auto;html=1;entryX=0;entryY=0.5;entryDx=0;entryDy=0;endArrow=none;endFill=0;" parent="1" source="-gaBI5YNp0DLK8B5nc4l-19" target="-gaBI5YNp0DLK8B5nc4l-80" edge="1">
          <mxGeometry relative="1" as="geometry">
            <Array as="points">
              <mxPoint x="450" y="430" />
              <mxPoint x="450" y="430" />
            </Array>
          </mxGeometry>
        </mxCell>
        <mxCell id="-gaBI5YNp0DLK8B5nc4l-19" value="&amp;lt;&amp;lt;component&amp;gt;&amp;gt;&lt;div&gt;Data Model&lt;/div&gt;" style="html=1;dropTarget=0;whiteSpace=wrap;" parent="1" vertex="1">
          <mxGeometry x="295" y="390" width="140" height="70" as="geometry" />
        </mxCell>
        <mxCell id="-gaBI5YNp0DLK8B5nc4l-20" value="" style="shape=module;jettyWidth=8;jettyHeight=4;" parent="-gaBI5YNp0DLK8B5nc4l-19" vertex="1">
          <mxGeometry x="1" width="20" height="20" relative="1" as="geometry">
            <mxPoint x="-27" y="7" as="offset" />
          </mxGeometry>
        </mxCell>
        <mxCell id="-gaBI5YNp0DLK8B5nc4l-21" value="&amp;lt;&amp;lt;component&amp;gt;&amp;gt;&lt;div&gt;Persistence&lt;/div&gt;" style="html=1;dropTarget=0;whiteSpace=wrap;" parent="1" vertex="1">
          <mxGeometry x="470" y="260" width="140" height="70" as="geometry" />
        </mxCell>
        <mxCell id="-gaBI5YNp0DLK8B5nc4l-22" value="" style="shape=module;jettyWidth=8;jettyHeight=4;" parent="-gaBI5YNp0DLK8B5nc4l-21" vertex="1">
          <mxGeometry x="1" width="20" height="20" relative="1" as="geometry">
            <mxPoint x="-27" y="7" as="offset" />
          </mxGeometry>
        </mxCell>
        <mxCell id="-gaBI5YNp0DLK8B5nc4l-24" value="" style="ellipse;whiteSpace=wrap;html=1;align=center;aspect=fixed;fillColor=none;strokeColor=none;resizable=0;perimeter=centerPerimeter;rotatable=0;allowArrows=0;points=[];outlineConnect=1;" parent="1" vertex="1">
          <mxGeometry x="150" y="410" width="10" height="10" as="geometry" />
        </mxCell>
        <mxCell id="-gaBI5YNp0DLK8B5nc4l-27" style="edgeStyle=orthogonalEdgeStyle;rounded=0;orthogonalLoop=1;jettySize=auto;html=1;entryX=0.5;entryY=0;entryDx=0;entryDy=0;endArrow=none;endFill=0;" parent="1" source="-gaBI5YNp0DLK8B5nc4l-25" target="-gaBI5YNp0DLK8B5nc4l-9" edge="1">
          <mxGeometry relative="1" as="geometry" />
        </mxCell>
        <mxCell id="-gaBI5YNp0DLK8B5nc4l-30" value="Controller API" style="edgeLabel;html=1;align=center;verticalAlign=middle;resizable=0;points=[];" parent="-gaBI5YNp0DLK8B5nc4l-27" vertex="1" connectable="0">
          <mxGeometry x="-0.7046" y="-1" relative="1" as="geometry">
            <mxPoint as="offset" />
          </mxGeometry>
        </mxCell>
        <mxCell id="-gaBI5YNp0DLK8B5nc4l-25" value="" style="shape=providedRequiredInterface;html=1;verticalLabelPosition=bottom;sketch=0;rotation=-90;" parent="1" vertex="1">
          <mxGeometry x="160" y="420" width="20" height="20" as="geometry" />
        </mxCell>
        <mxCell id="-gaBI5YNp0DLK8B5nc4l-26" style="edgeStyle=orthogonalEdgeStyle;rounded=0;orthogonalLoop=1;jettySize=auto;html=1;entryX=1;entryY=0.5;entryDx=0;entryDy=0;entryPerimeter=0;endArrow=none;endFill=0;" parent="1" source="-gaBI5YNp0DLK8B5nc4l-7" target="-gaBI5YNp0DLK8B5nc4l-25" edge="1">
          <mxGeometry relative="1" as="geometry" />
        </mxCell>
        <mxCell id="-gaBI5YNp0DLK8B5nc4l-36" style="edgeStyle=orthogonalEdgeStyle;rounded=0;orthogonalLoop=1;jettySize=auto;html=1;entryX=0.5;entryY=0;entryDx=0;entryDy=0;endArrow=none;endFill=0;" parent="1" source="-gaBI5YNp0DLK8B5nc4l-33" target="-gaBI5YNp0DLK8B5nc4l-11" edge="1">
          <mxGeometry relative="1" as="geometry">
            <Array as="points">
              <mxPoint x="140" y="720" />
              <mxPoint x="180" y="720" />
            </Array>
          </mxGeometry>
        </mxCell>
        <mxCell id="-gaBI5YNp0DLK8B5nc4l-37" value="Application Service API" style="edgeLabel;html=1;align=center;verticalAlign=middle;resizable=0;points=[];" parent="-gaBI5YNp0DLK8B5nc4l-36" vertex="1" connectable="0">
          <mxGeometry x="-0.7941" y="-2" relative="1" as="geometry">
            <mxPoint as="offset" />
          </mxGeometry>
        </mxCell>
        <mxCell id="-gaBI5YNp0DLK8B5nc4l-33" value="" style="shape=providedRequiredInterface;html=1;verticalLabelPosition=bottom;sketch=0;rotation=-90;" parent="1" vertex="1">
          <mxGeometry x="130" y="680" width="20" height="20" as="geometry" />
        </mxCell>
        <mxCell id="-gaBI5YNp0DLK8B5nc4l-42" value="" style="ellipse;whiteSpace=wrap;html=1;align=center;aspect=fixed;fillColor=none;strokeColor=none;resizable=0;perimeter=centerPerimeter;rotatable=0;allowArrows=0;points=[];outlineConnect=1;" parent="1" vertex="1">
          <mxGeometry x="360" y="970" width="10" height="10" as="geometry" />
        </mxCell>
        <mxCell id="-gaBI5YNp0DLK8B5nc4l-47" style="edgeStyle=orthogonalEdgeStyle;rounded=0;orthogonalLoop=1;jettySize=auto;html=1;endArrow=none;endFill=0;" parent="1" source="-gaBI5YNp0DLK8B5nc4l-44" target="-gaBI5YNp0DLK8B5nc4l-15" edge="1">
          <mxGeometry relative="1" as="geometry" />
        </mxCell>
        <mxCell id="-gaBI5YNp0DLK8B5nc4l-44" value="" style="shape=providedRequiredInterface;html=1;verticalLabelPosition=bottom;sketch=0;rotation=90;" parent="1" vertex="1">
          <mxGeometry x="520" y="690" width="20" height="20" as="geometry" />
        </mxCell>
        <mxCell id="-gaBI5YNp0DLK8B5nc4l-46" style="edgeStyle=orthogonalEdgeStyle;rounded=0;orthogonalLoop=1;jettySize=auto;html=1;entryX=1;entryY=0.5;entryDx=0;entryDy=0;entryPerimeter=0;endArrow=none;endFill=0;" parent="1" source="-gaBI5YNp0DLK8B5nc4l-11" target="-gaBI5YNp0DLK8B5nc4l-44" edge="1">
          <mxGeometry relative="1" as="geometry" />
        </mxCell>
        <mxCell id="-gaBI5YNp0DLK8B5nc4l-48" value="Repository API" style="edgeLabel;html=1;align=center;verticalAlign=middle;resizable=0;points=[];" parent="-gaBI5YNp0DLK8B5nc4l-46" vertex="1" connectable="0">
          <mxGeometry x="0.8562" relative="1" as="geometry">
            <mxPoint as="offset" />
          </mxGeometry>
        </mxCell>
        <mxCell id="-gaBI5YNp0DLK8B5nc4l-49" value="" style="shape=providedRequiredInterface;html=1;verticalLabelPosition=bottom;sketch=0;rotation=90;" parent="1" vertex="1">
          <mxGeometry x="560" y="420" width="20" height="20" as="geometry" />
        </mxCell>
        <mxCell id="-gaBI5YNp0DLK8B5nc4l-50" style="edgeStyle=orthogonalEdgeStyle;rounded=0;orthogonalLoop=1;jettySize=auto;html=1;entryX=1;entryY=0.5;entryDx=0;entryDy=0;entryPerimeter=0;endArrow=none;endFill=0;" parent="1" source="-gaBI5YNp0DLK8B5nc4l-15" target="-gaBI5YNp0DLK8B5nc4l-49" edge="1">
          <mxGeometry relative="1" as="geometry">
            <Array as="points">
              <mxPoint x="570" y="520" />
              <mxPoint x="570" y="520" />
            </Array>
          </mxGeometry>
        </mxCell>
        <mxCell id="-gaBI5YNp0DLK8B5nc4l-54" value="Persistence API" style="edgeLabel;html=1;align=center;verticalAlign=middle;resizable=0;points=[];" parent="-gaBI5YNp0DLK8B5nc4l-50" vertex="1" connectable="0">
          <mxGeometry x="0.6407" y="2" relative="1" as="geometry">
            <mxPoint x="2" y="-60" as="offset" />
          </mxGeometry>
        </mxCell>
        <mxCell id="-gaBI5YNp0DLK8B5nc4l-53" style="edgeStyle=orthogonalEdgeStyle;rounded=0;orthogonalLoop=1;jettySize=auto;html=1;endArrow=none;endFill=0;" parent="1" source="-gaBI5YNp0DLK8B5nc4l-49" target="-gaBI5YNp0DLK8B5nc4l-21" edge="1">
          <mxGeometry relative="1" as="geometry">
            <Array as="points">
              <mxPoint x="570" y="360" />
              <mxPoint x="570" y="360" />
            </Array>
          </mxGeometry>
        </mxCell>
        <mxCell id="-gaBI5YNp0DLK8B5nc4l-62" value="" style="ellipse;whiteSpace=wrap;html=1;aspect=fixed;" parent="1" vertex="1">
          <mxGeometry x="347.5" y="915" width="35" height="35" as="geometry" />
        </mxCell>
        <mxCell id="-gaBI5YNp0DLK8B5nc4l-65" style="edgeStyle=orthogonalEdgeStyle;rounded=0;orthogonalLoop=1;jettySize=auto;html=1;endArrow=none;endFill=0;" parent="1" source="-gaBI5YNp0DLK8B5nc4l-63" target="-gaBI5YNp0DLK8B5nc4l-13" edge="1">
          <mxGeometry relative="1" as="geometry">
            <Array as="points">
              <mxPoint x="365" y="1000" />
              <mxPoint x="365" y="1000" />
            </Array>
          </mxGeometry>
        </mxCell>
        <mxCell id="-gaBI5YNp0DLK8B5nc4l-66" value="Model API" style="edgeLabel;html=1;align=center;verticalAlign=middle;resizable=0;points=[];" parent="-gaBI5YNp0DLK8B5nc4l-65" vertex="1" connectable="0">
          <mxGeometry x="-0.7786" y="1" relative="1" as="geometry">
            <mxPoint as="offset" />
          </mxGeometry>
        </mxCell>
        <mxCell id="-gaBI5YNp0DLK8B5nc4l-63" value="" style="ellipse;whiteSpace=wrap;html=1;aspect=fixed;" parent="1" vertex="1">
          <mxGeometry x="351.25" y="918.75" width="27.5" height="27.5" as="geometry" />
        </mxCell>
        <mxCell id="-gaBI5YNp0DLK8B5nc4l-67" style="edgeStyle=orthogonalEdgeStyle;rounded=0;orthogonalLoop=1;jettySize=auto;html=1;entryX=0.842;entryY=0.972;entryDx=0;entryDy=0;entryPerimeter=0;endArrow=none;endFill=0;" parent="1" source="-gaBI5YNp0DLK8B5nc4l-63" target="-gaBI5YNp0DLK8B5nc4l-15" edge="1">
          <mxGeometry relative="1" as="geometry" />
        </mxCell>
        <mxCell id="-gaBI5YNp0DLK8B5nc4l-69" value="" style="ellipse;whiteSpace=wrap;html=1;aspect=fixed;" parent="1" vertex="1">
          <mxGeometry x="215" y="680" width="35" height="35" as="geometry" />
        </mxCell>
        <mxCell id="-gaBI5YNp0DLK8B5nc4l-70" value="" style="ellipse;whiteSpace=wrap;html=1;aspect=fixed;" parent="1" vertex="1">
          <mxGeometry x="219.38" y="684.38" width="26.25" height="26.25" as="geometry" />
        </mxCell>
        <mxCell id="-gaBI5YNp0DLK8B5nc4l-71" style="edgeStyle=orthogonalEdgeStyle;rounded=0;orthogonalLoop=1;jettySize=auto;html=1;entryX=0.024;entryY=0.391;entryDx=0;entryDy=0;entryPerimeter=0;endArrow=none;endFill=0;" parent="1" source="-gaBI5YNp0DLK8B5nc4l-69" target="-gaBI5YNp0DLK8B5nc4l-17" edge="1">
          <mxGeometry relative="1" as="geometry" />
        </mxCell>
        <mxCell id="-gaBI5YNp0DLK8B5nc4l-73" style="edgeStyle=orthogonalEdgeStyle;rounded=0;orthogonalLoop=1;jettySize=auto;html=1;entryX=0.881;entryY=-0.007;entryDx=0;entryDy=0;entryPerimeter=0;endArrow=none;endFill=0;" parent="1" source="-gaBI5YNp0DLK8B5nc4l-69" target="-gaBI5YNp0DLK8B5nc4l-11" edge="1">
          <mxGeometry relative="1" as="geometry" />
        </mxCell>
        <mxCell id="-gaBI5YNp0DLK8B5nc4l-78" value="DTO API" style="edgeLabel;html=1;align=center;verticalAlign=middle;resizable=0;points=[];" parent="-gaBI5YNp0DLK8B5nc4l-73" vertex="1" connectable="0">
          <mxGeometry x="-0.8187" y="-1" relative="1" as="geometry">
            <mxPoint x="1" y="-6" as="offset" />
          </mxGeometry>
        </mxCell>
        <mxCell id="-gaBI5YNp0DLK8B5nc4l-79" value="" style="ellipse;whiteSpace=wrap;html=1;aspect=fixed;" parent="1" vertex="1">
          <mxGeometry x="490" y="412.5" width="35" height="35" as="geometry" />
        </mxCell>
        <mxCell id="-gaBI5YNp0DLK8B5nc4l-80" value="" style="ellipse;whiteSpace=wrap;html=1;aspect=fixed;" parent="1" vertex="1">
          <mxGeometry x="494.38" y="416.87" width="26.25" height="26.25" as="geometry" />
        </mxCell>
        <mxCell id="-gaBI5YNp0DLK8B5nc4l-86" style="edgeStyle=orthogonalEdgeStyle;rounded=0;orthogonalLoop=1;jettySize=auto;html=1;entryX=0.29;entryY=1.015;entryDx=0;entryDy=0;entryPerimeter=0;endArrow=none;endFill=0;" parent="1" source="-gaBI5YNp0DLK8B5nc4l-79" target="-gaBI5YNp0DLK8B5nc4l-21" edge="1">
          <mxGeometry relative="1" as="geometry">
            <Array as="points">
              <mxPoint x="508" y="371" />
              <mxPoint x="508" y="331" />
            </Array>
          </mxGeometry>
        </mxCell>
        <mxCell id="-gaBI5YNp0DLK8B5nc4l-92" style="edgeStyle=orthogonalEdgeStyle;rounded=0;orthogonalLoop=1;jettySize=auto;html=1;endArrow=none;endFill=0;" parent="1" source="-gaBI5YNp0DLK8B5nc4l-88" target="-gaBI5YNp0DLK8B5nc4l-91" edge="1">
          <mxGeometry relative="1" as="geometry" />
        </mxCell>
        <mxCell id="-gaBI5YNp0DLK8B5nc4l-94" value="API" style="edgeLabel;html=1;align=center;verticalAlign=middle;resizable=0;points=[];" parent="-gaBI5YNp0DLK8B5nc4l-92" vertex="1" connectable="0">
          <mxGeometry x="-0.8022" y="-1" relative="1" as="geometry">
            <mxPoint as="offset" />
          </mxGeometry>
        </mxCell>
        <mxCell id="-gaBI5YNp0DLK8B5nc4l-88" value="" style="ellipse;whiteSpace=wrap;html=1;aspect=fixed;" parent="1" vertex="1">
          <mxGeometry x="150" y="20" width="30" height="30" as="geometry" />
        </mxCell>
        <mxCell id="-gaBI5YNp0DLK8B5nc4l-91" value="" style="verticalLabelPosition=bottom;verticalAlign=top;html=1;shape=mxgraph.basic.rect;fillColor2=none;strokeWidth=1;size=20;indent=5;" parent="1" vertex="1">
          <mxGeometry x="155" y="140" width="20" height="20" as="geometry" />
        </mxCell>
        <mxCell id="-gaBI5YNp0DLK8B5nc4l-93" style="edgeStyle=orthogonalEdgeStyle;rounded=0;orthogonalLoop=1;jettySize=auto;html=1;entryX=0.46;entryY=0.046;entryDx=0;entryDy=0;entryPerimeter=0;endArrow=none;endFill=0;" parent="1" source="-gaBI5YNp0DLK8B5nc4l-91" target="-gaBI5YNp0DLK8B5nc4l-7" edge="1">
          <mxGeometry relative="1" as="geometry" />
        </mxCell>
      </root>
    </mxGraphModel>
  </diagram>
</mxfile>
